<?xml version="1.0" encoding="iso-8859-1"?>
<!-- Generator: Adobe Illustrator 19.0.0, SVG Export Plug-In . SVG Version: 6.00 Build 0)  -->
<svg version="1.1" id="Layer_1" xmlns="http://www.w3.org/2000/svg" xmlns:xlink="http://www.w3.org/1999/xlink" x="0px" y="0px"
	 viewBox="0 0 512.001 512.001" style="enable-background:new 0 0 512.001 512.001;" xml:space="preserve">
<circle style="fill:#FFD630;" cx="256" cy="256" r="256"/>
<path style="fill:#F5BE18;" d="M275.206,511.348L108.167,344.66l17.301-59.524l39.415,44.43l31.191,33.899l59.976,9.528l0.15-88.96
	l-78.329-83.846h65.692v-48.593c0.451-13.389-20.209-36.005-13.189-45.984c10.832-15.495,28.434-17.702,49.445-12.486l15.345,15.696
	c20.761,9.127,54.259,15.997,75.873,28.985l140.11,140.16C500.566,402.779,400.473,502.12,275.256,511.398L275.206,511.348z"/>
<path style="fill:#00CC96;" d="M270.893,106.562c132.087-29.035,165.484,150.591,22.215,156.859
	c-53.356,2.357-86.303,20.611-103.153,43.978c-27.781,38.513-12.737,104.005,38.061,114.635c16.348,5.667,7.973,20.761-3.561,17.05
	c-63.385-13.239-83.595-93.374-48.643-141.865c19.708-27.33,57.117-48.643,116.541-51.2
	c118.196-5.166,89.763-146.077-17.752-122.408c-13.389,2.307-15.245-13.039-3.661-17.05L270.893,106.562L270.893,106.562z"/>
<path style="fill:#E84F4F;" d="M125.568,284.934l39.465,44.431l-18.604,4.965c1.404,7.773,6.669,23.018,26.779,26.679
	c25.876,4.713,56.365,5.266,70.206-33.047V200.086h-65.592l-14.091-14.492l14.091-14.492h65.592v-19.507
	c7.773,0-22.115-6.769-22.115-33.548c0-19.156,15.546-34.702,34.702-34.702c14.141,0,26.277,8.424,31.693,20.56
	c-4.663,0.451-9.528,1.154-14.492,2.156l0,0c-3.811-5.416-10.079-8.977-17.201-8.977c-11.584,0-20.962,9.378-20.962,20.962
	s9.378,20.962,20.962,20.962c9.779,0,18.053-6.719,20.359-15.796c4.914-1.003,9.678-1.655,14.241-2.006
	c-2.256,23.719-29.035,30.389-21.964,30.389v19.507h65.592l14.091,14.492l-14.091,14.492h-65.591v127.874
	c13.84,38.313,44.33,37.76,70.206,33.047c20.109-3.661,25.374-18.906,26.779-26.679l-18.604-4.965l39.465-44.431l17.401,59.674
	l-19.507-5.216c-0.351,18.103-8.625,41.12-45.182,50.248c-14.241,3.561-81.288,38.964-83.243,38.964
	c-1.455,0-69.253-35.504-83.093-38.964c-36.557-9.127-44.781-32.144-45.182-50.248l-19.507,5.216L125.568,284.934z"/>
<path style="fill:#C94545;" d="M256.05,83.395c14.141,0,26.277,8.424,31.693,20.56c-4.663,0.451-9.528,1.154-14.492,2.156
	c-3.811-5.416-10.079-8.977-17.201-8.977V83.395L256.05,83.395z M290.601,121.255c-2.256,23.719-29.035,30.389-21.964,30.389v19.507
	h65.592l14.091,14.492l-14.091,14.492h-65.592V328.01c13.84,38.313,44.33,37.76,70.206,33.047
	c20.109-3.661,25.374-18.906,26.779-26.679l-18.604-4.965l39.465-44.43l17.401,59.674l-19.507-5.216
	c-0.351,18.103-8.625,41.12-45.182,50.248c-14.141,3.51-80.085,38.363-83.193,38.964V139.107c9.779,0,18.053-6.719,20.359-15.796
	c4.914-1.003,9.678-1.655,14.241-2.006V121.255z"/>
<path style="fill:#00CC96;" d="M287.743,103.954c1.956,4.312,3.009,9.127,3.009,14.141c0,1.104-0.05,2.156-0.15,3.16
	c-4.563,0.351-9.328,1.003-14.241,2.006c0.401-1.655,0.652-3.36,0.652-5.165c0-4.463-1.404-8.575-3.761-11.985
	C278.215,105.108,283.079,104.355,287.743,103.954z"/>
<path style="fill:#FFFFFF;" d="M162.175,326.155l2.908,3.26l-3.962,1.054C161.422,329.014,161.823,327.61,162.175,326.155z"/>
<g>
</g>
<g>
</g>
<g>
</g>
<g>
</g>
<g>
</g>
<g>
</g>
<g>
</g>
<g>
</g>
<g>
</g>
<g>
</g>
<g>
</g>
<g>
</g>
<g>
</g>
<g>
</g>
<g>
</g>
</svg>
