<?xml version="1.0" encoding="iso-8859-1"?>
<!-- Generator: Adobe Illustrator 19.0.0, SVG Export Plug-In . SVG Version: 6.00 Build 0)  -->
<svg version="1.1" id="Layer_1" xmlns="http://www.w3.org/2000/svg" xmlns:xlink="http://www.w3.org/1999/xlink" x="0px" y="0px"
	 viewBox="0 0 496.246 496.246" style="enable-background:new 0 0 496.246 496.246;" xml:space="preserve">
<path style="fill:#F9980D;" d="M488.054,345.324c0,14.84-12.036,26.868-26.884,26.868H273.124c-14.832,0-26.86-12.02-26.86-26.868
	V244.578c0-14.84,12.028-26.868,26.86-26.868H461.17c14.848,0,26.884,12.02,26.884,26.868V345.324z"/>
<path style="fill:#A39F95;" d="M197.01,372.193H13.43c-7.396,0-13.43-6.018-13.43-13.438s6.034-13.43,13.43-13.43H183.58V175.183
	c0-7.42,6.018-13.438,13.43-13.438s13.438,6.018,13.438,13.438v183.58L197.01,372.193z"/>
<path style="fill:#89847A;" d="M197.01,188.613c-7.412,0-13.43,6.01-13.43,13.43v143.281v26.868h13.43l13.438-13.438V202.043
	C210.448,194.623,204.422,188.613,197.01,188.613z"/>
<g>
	<path style="fill:#FFC41F;" d="M488.054,332.942c0,13.328-12.036,24.135-26.884,24.135H273.124
		c-14.832,0-26.86-10.815-26.86-24.135v-90.529c0-13.328,12.028-24.143,26.86-24.143H461.17c14.848,0,26.884,10.815,26.884,24.143
		V332.942z"/>
	<circle style="fill:#FFC41F;" cx="284.908" cy="359.881" r="28.538"/>
</g>
<path style="fill:#FFA522;" d="M284.885,331.335c15.762,0,28.538,12.776,28.538,28.546c0,15.762-12.776,28.538-28.538,28.538"/>
<path style="fill:#1A3D5B;" d="M284.885,401.857c-23.142,0-41.968-18.834-41.968-41.976c0-23.158,18.826-41.984,41.968-41.984
	s41.984,18.826,41.984,41.984C326.869,383.015,308.027,401.857,284.885,401.857z M284.885,344.765
	c-8.342,0-15.108,6.774-15.108,15.116c0,8.326,6.766,15.1,15.108,15.1S300,368.207,300,359.881
	C300,351.539,293.226,344.765,284.885,344.765z"/>
<circle style="fill:#FFC41F;" cx="449.457" cy="359.881" r="28.546"/>
<path style="fill:#FFA522;" d="M429.245,339.692c11.146-11.146,29.231-11.146,40.361,0c11.162,11.146,11.146,29.223,0,40.369"/>
<path style="fill:#1A3D5B;" d="M479.114,389.553c-16.368,16.376-42.992,16.376-59.361,0c-16.368-16.368-16.368-42.984,0-59.36
	c16.368-16.368,42.992-16.368,59.361,0C495.49,346.569,495.49,373.193,479.114,389.553z M438.753,349.192
	c-5.9,5.892-5.9,15.478,0,21.378c5.876,5.892,15.478,5.892,21.37,0c5.876-5.9,5.876-15.486,0-21.378
	C454.231,343.3,444.629,343.3,438.753,349.192z"/>
<path style="fill:#F9980D;" d="M447,94.389h-80.234c-3.552,0-6.971,1.418-9.5,3.931L250.203,205.422
	c-5.246,5.246-5.246,13.745,0,18.991s13.737,5.246,18.991,0l29.31-29.31v26.529c0,7.412,6.026,13.438,13.422,13.438
	c7.428,0,13.446-6.018,13.446-13.438v-53.406l46.962-46.97h61.227v107.835c0,7.412,6.018,13.43,13.438,13.43
	c7.396,0,13.43-6.018,13.43-13.43V107.827C460.43,100.415,454.404,94.389,447,94.389z"/>
<path style="fill:#F76D0F;" d="M447,120.139h-80.234c-3.552,0-6.971,1.418-9.5,3.938L254.251,227.115
	c4.931,2.206,10.886,1.355,14.935-2.694l29.31-29.31v25.75v0.788c0,7.412,6.026,13.438,13.422,13.438
	c7.428,0,13.446-6.018,13.446-13.438v-27.664v-25.742l46.962-46.97h61.227v25.742v82.093c0,7.412,6.018,13.43,13.438,13.43
	c7.396,0,13.43-6.018,13.43-13.43v-95.531C460.43,126.157,454.404,120.139,447,120.139z"/>
<path style="fill:#F9980D;" d="M496.246,238.08c0,2.521-2.048,4.561-4.553,4.561H242.601c-2.513,0-4.545-2.04-4.545-4.561v-25.064
	c0-2.521,2.032-4.553,4.545-4.553h249.092c2.505,0,4.553,2.024,4.553,4.553L496.246,238.08L496.246,238.08z"/>
<path style="fill:#F7AA0F;" d="M491.693,208.471H242.601c-2.513,0-4.545,2.024-4.545,4.553v8.838c0,2.513,2.032,4.553,4.545,4.553
	h249.092c2.505,0,4.553-2.04,4.553-4.553v-8.838C496.246,210.495,494.198,208.471,491.693,208.471z"/>
<g>
	<path style="fill:#F9980D;" d="M319.023,273.684c0,0.929-0.764,1.678-1.686,1.678h-17.345c-0.922,0-1.686-0.748-1.686-1.678l0,0
		c0-0.929,0.764-1.678,1.686-1.678h17.345C318.259,272.006,319.023,272.754,319.023,273.684L319.023,273.684z"/>
	<path style="fill:#F9980D;" d="M319.023,284.318c0,0.929-0.764,1.678-1.686,1.678h-17.345c-0.922,0-1.686-0.748-1.686-1.678l0,0
		c0-0.929,0.764-1.678,1.686-1.678h17.345C318.259,282.64,319.023,283.396,319.023,284.318L319.023,284.318z"/>
	<path style="fill:#F9980D;" d="M319.023,294.959c0,0.922-0.764,1.67-1.686,1.67h-17.345c-0.922,0-1.686-0.748-1.686-1.67l0,0
		c0-0.929,0.764-1.678,1.686-1.678h17.345C318.259,293.274,319.023,294.03,319.023,294.959L319.023,294.959z"/>
</g>
<g>
	<path style="fill:#89847A;" d="M259.694,272.746c0,3.096-2.497,5.593-5.593,5.593h-50.751c-3.088,0-5.593-2.505-5.593-5.593l0,0
		c0-3.08,2.505-5.593,5.593-5.593h50.751C257.189,267.154,259.694,269.666,259.694,272.746L259.694,272.746z"/>
	<path style="fill:#89847A;" d="M259.694,294.4c0,3.08-2.497,5.593-5.593,5.593h-50.751c-3.088,0-5.593-2.513-5.593-5.593l0,0
		c0-3.088,2.505-5.6,5.593-5.6h50.751C257.189,288.792,259.694,291.304,259.694,294.4L259.694,294.4z"/>
	<path style="fill:#89847A;" d="M259.694,316.038c0,3.088-2.497,5.593-5.593,5.593h-50.751c-3.088,0-5.593-2.505-5.593-5.593l0,0
		c0-3.096,2.505-5.593,5.593-5.593h50.751C257.189,310.445,259.694,312.942,259.694,316.038L259.694,316.038z"/>
</g>
<g>
</g>
<g>
</g>
<g>
</g>
<g>
</g>
<g>
</g>
<g>
</g>
<g>
</g>
<g>
</g>
<g>
</g>
<g>
</g>
<g>
</g>
<g>
</g>
<g>
</g>
<g>
</g>
<g>
</g>
</svg>
